<?xml version="1.0" encoding="UTF-8"?>
<svg viewBox="0 0 963.77948 496.062988" xmlns="http://www.w3.org/2000/svg">
 <path d="m0 168.09h963.78v149.6h-963.78z" fill="#fff" fill-rule="evenodd"/>
 <g transform="matrix(1.0435 0 0 1.0435 .057924 -.12704)" font-size="12">
  <path d="m0.78548 288.73h925.36v187.64h-925.36z" fill="#003e9f" fill-rule="evenodd"/>
  <path d="m-1.3302 2.9171h926.85v157.34h-926.85z" fill="#d61517" fill-rule="evenodd"/>
  <path transform="matrix(.26544 0 0 .2604 359.68 74.414)" d="m99.546 313.18c91.172-33.06 192.26-50.898 291.06-51.152s199.56 15.548 299.12 51.915l74.111-152.4-52.091-92.492s-92.938 38.91-93.701 38.91-65.53-72.656-65.53-72.656l-83.172 51.223-78.102-60.883-73.465 59.944-85.766-50.53-62.561 75.777-93.771-40.87-50.202 91.647 74.064 151.57z" fill="#fff" fill-rule="evenodd" stroke="#e5141d" stroke-linecap="round" stroke-width="4"/>
  <path transform="matrix(.21501 .1527 -.15565 .21093 537.56 64.727)" d="m103.35 305.55-55.296-148.75 51.57-83.744 86.836 38.302 28.363 156.41c-41.446 10.136-62.637 16.965-111.47 37.787z" fill="#00a7bd" fill-rule="evenodd" stroke="#0084fd" stroke-width="1.25"/>
  <path transform="matrix(.25199 .081833 -.083416 .24721 448.13 56.569)" d="m103.49 305.85-63.373-145.84 50.173-78.251 89.981 31.708 37.199 154.81c-40.175 10.938-68.342 20.333-113.98 37.58z" fill="#00a7bd" fill-rule="evenodd" stroke="#0084fd" stroke-width="1.25"/>
  <path transform="matrix(.26544 0 0 .2604 359.68 74.414)" d="m103.12 305.58-67.322-145.15 44.991-80.13 93.266 41.379 39.408 149.75c-42.583 8.976-65.133 16.31-110.34 34.153z" fill="#00a7bd" fill-rule="evenodd" stroke="#0084fd" stroke-opacity=".99608" stroke-width="1.25"/>
  <path transform="matrix(.26544 0 0 .2604 359.68 74.414)" d="m82.188 225.18c21.198 4.375 36.302 4.532 55.312-0.781 22.709-9.479 30.73-22.24 38.125-32.5 3.438 21.667-0.156 41.302-26.093 55.156-23.282 10.938-54.688 4.063-67.344-21.875z" fill="#fff" fill-rule="evenodd" stroke="#fff" stroke-width="1.25"/>
  <g transform="matrix(.26544 0 0 .2604 359.68 74.414)">
   <path d="m410.938,120.565-4.063,1.016 .156,7.5-5,1.094-3.497,6.614 2.159,2.044c.111.221-1.703,4.892-1.625,4.892s1.323,1.762 1.323,1.762l1.328,4.063 3.359.468 .86,4.766 5.312.859 4.922,3.516 .312,2.188 5.625.156 3.829,1.25 13.359-1.563 1.797-2.812 .156-3.828 7.188-.235 .657-6.105h3.809l-.474-6.875 3.177.286-.82-3.295-1.975-2.683-.39-4.218-5.625-5.625-1.25-7.344c0,0-3.594-1.641-3.594-1.719s-.234-4.922-.234-4.922l4.062-5.703-.39-2.265-3.75-.079-2.813,2.344c0,0-3.75.391-3.75.469v1.719c0,0 .938,3.203.938,3.281s-4.297,0-4.297,0l-.157-5.078-6.093-3.047c0,0-5.703,3.906-5.703,3.984s-.313,4.532-.313,4.532l-2.734.781-2.813-4.219-4.922-1.875-2.656-.156-.078,3.281 5.156,6.797-.468,3.984z" fill="#faf703" fill-opacity=".99608" fill-rule="evenodd" stroke="#544b20" stroke-opacity=".99608" stroke-width="1.25"/>
   <path d="m449.23 148.04-1.105-4.088" fill="none" stroke="#544b20" stroke-width="1.25"/>
   <path d="m452.33 141.3-1.878-2.762" fill="none" stroke="#544b20" stroke-width="1.25"/>
   <path d="m400.841,138.206 5.856-.332 1.105,5.303 1.988,1.768 .332,9.723 1.878.773 .553-3.867 4.53-.331 .883,7.844-1.104.995 .442,1.215 5.413-.11c0,0 1.216-2.1 1.326-2.1s3.094-.331 3.094-.221 1.215,2.321 1.215,2.321l.884-2.984c0,0 2.873-1.215 2.873-1.104s2.32,3.756 2.32,3.756l3.977-.552-2.43-2.32-.995-5.083 5.524-2.983 2.21,3.757c0,0 2.099.11 1.989,0s-2.431-4.309-2.431-4.309v-8.839l4.199-5.745 5.855-.663v-2.431l-5.855-5.414-1.547-7.513-3.315-1.657-.884.994-3.646.332 3.646,5.414v3.535l1.658.884-.332,9.723c0,0-4.088.552-4.088.663s-.331,5.413-.331,5.413l-2.541,2.542c0,0-1.437,5.082-1.547,5.082s-2.431,3.093-2.431,3.093l-4.53.111c0,0-2.651-2.541-2.651-2.652s-.442-3.756-.442-3.756-1.768-.553-1.879-.553-.994-4.088-.994-4.088l-3.094-1.767-.22-2.431-2.984-1.326c0,0-.331-2.21-.442-2.32s-1.436-.994-1.546-.994-.111-6.077-.111-6.077l2.652-.442-1.485-1.94-.504-1.706v-1.768l2.21-2.21c0,0-3.978-.552-3.978-.442s-3.866,1.768-3.866,1.658c.11,0-.111,7.181-.111,7.181l-4.53,1.437-3.646,5.855 1.878,1.658z" fill="#544b20" fill-rule="evenodd" stroke="#544b21" stroke-opacity=".99999" stroke-width="1.25"/>
   <path d="m423.712,148.039 2.983-1.768-.111-3.425-2.872-.663-1.106-1.105 3.205.553 3.977-.332 1.326-.663c-.552,1.437-.994,1.326-1.105,1.326s-2.209,1.105-2.209,1.105l.11,3.315c0,0 6.85.883 6.74.883s0,1.326-.221,1.326-7.071-1.547-7.071-1.547l-4.309,2.652 .663-1.657z" fill="#544b20" fill-rule="evenodd" stroke="#544b20" stroke-width="1.25"/>
   <path d="m440.947,127.489-3.977,3.093-2.541,4.53-1.326.221-3.867-5.193-4.419.111c0,0-2.431,6.076-2.431,6.187s-1.768-.221-1.768-.221l-4.64-5.082c0,0-1.437-2.542-1.216-2.542l11.601.111-.11-5.524c0,0-1.768-.553-2.652-1.105 .663-.221 6.298-.221 6.298-.221l-2.431,1.657v4.751l10.054.11 3.425-.883z" fill="#544b20" fill-rule="evenodd" stroke="#544b20" stroke-width="1.25"/>
   <path d="m420.84 130.14h2e-5a1.3258 1.3258 0 0 1 1.3258 1.3258 1.3258 1.3258 0 0 1 -1.3258 1.3258h-2e-5a1.3258 1.3258 0 0 1 -1.3258 -1.3258 1.3258 1.3258 0 0 1 1.3258 -1.3258" fill="#796a3a" fill-opacity=".99608" fill-rule="evenodd"/>
   <path d="m433.43 129.59h2e-5a1.3258 1.3258 0 0 1 1.3258 1.3258 1.3258 1.3258 0 0 1 -1.3258 1.3258h-2e-5a1.3258 1.3258 0 0 1 -1.3258 -1.3258 1.3258 1.3258 0 0 1 1.3258 -1.3258" fill="#7a6b3a" fill-rule="evenodd"/>
   <path d="m413.547,121.301c4.198-1.694 7.181-3.056 12.374-3.535 4.898-.516 8.692.184 13.037.994" fill="none" stroke="#544b20" stroke-width="1.25"/>
   <path d="m415.87 112.35h-3.425l-4.862-5.193 2.763 0.332 3.204 1.436 2.32 3.425z" fill="#544b20" fill-rule="evenodd" stroke="#544b20" stroke-width="1.25"/>
   <path d="m436.528,110.363 7.734-5.965-2.541-.332-2.873,2.651-3.425.553 1.105,3.093z" fill="#544b20" fill-rule="evenodd" stroke="#544b20" stroke-width="1.25"/>
   <path d="m431.968,111.459-12.123.451 .11-1.326 4.42-.442 .552-1.767c0,0 1.326-.11 1.326,0s.994,1.657.994,1.657l4.309.773 .412.654z" fill="#544b20" fill-rule="evenodd" stroke="#544b20" stroke-width="1.25"/>
   <path d="m431.335,106.828-4.198.11-.332-2.32 4.53,2.21z" fill="#544b20" fill-rule="evenodd" stroke="#544b20" stroke-width="1.25"/>
   <path d="m424.264,104.729-.332,2.319-4.087.663 4.419-2.982z" fill="#544b20" fill-rule="evenodd" stroke="#544b20" stroke-width="1.25"/>
   <path d="m401.06 147.04 2.099-5.303-1.878-3.646-1.878 5.414 1.657 3.535z" fill="#544b20" fill-rule="evenodd" stroke="#544b20" stroke-width="1.25"/>
   <path transform="translate(-.11047,.11044)" d="m405.37 149.81 2.541-6.298-4.861 5.082 2.32 1.216z" fill="#544b20" fill-rule="evenodd" stroke="#544b20" stroke-width="1.25"/>
  </g>
  <g transform="matrix(.26544 0 0 .2604 341.88 74.989)">
   <path d="m410.938,120.565-4.063,1.016 .156,7.5-5,1.094-3.497,6.614 2.159,2.044c.111.221-1.703,4.892-1.625,4.892s1.323,1.762 1.323,1.762l1.328,4.063 3.359.468 .86,4.766 5.312.859 4.922,3.516 .312,2.188 5.625.156 3.829,1.25 13.359-1.563 1.797-2.812 .156-3.828 7.188-.235 .657-6.105h3.809l-.474-6.875 3.177.286-.82-3.295-1.975-2.683-.39-4.218-5.625-5.625-1.25-7.344c0,0-3.594-1.641-3.594-1.719s-.234-4.922-.234-4.922l4.062-5.703-.39-2.265-3.75-.079-2.813,2.344c0,0-3.75.391-3.75.469v1.719c0,0 .938,3.203.938,3.281s-4.297,0-4.297,0l-.157-5.078-6.093-3.047c0,0-5.703,3.906-5.703,3.984s-.313,4.532-.313,4.532l-2.734.781-2.813-4.219-4.922-1.875-2.656-.156-.078,3.281 5.156,6.797-.468,3.984z" fill="#faf703" fill-opacity=".99608" fill-rule="evenodd" stroke="#544b20" stroke-opacity=".99608" stroke-width="1.25"/>
   <path d="m449.23 148.04-1.105-4.088" fill="none" stroke="#544b20" stroke-width="1.25"/>
   <path d="m452.33 141.3-1.878-2.762" fill="none" stroke="#544b20" stroke-width="1.25"/>
   <path d="m400.841,138.206 5.856-.332 1.105,5.303 1.988,1.768 .332,9.723 1.878.773 .553-3.867 4.53-.331 .883,7.844-1.104.995 .442,1.215 5.413-.11c0,0 1.216-2.1 1.326-2.1s3.094-.331 3.094-.221 1.215,2.321 1.215,2.321l.884-2.984c0,0 2.873-1.215 2.873-1.104s2.32,3.756 2.32,3.756l3.977-.552-2.43-2.32-.995-5.083 5.524-2.983 2.21,3.757c0,0 2.099.11 1.989,0s-2.431-4.309-2.431-4.309v-8.839l4.199-5.745 5.855-.663v-2.431l-5.855-5.414-1.547-7.513-3.315-1.657-.884.994-3.646.332 3.646,5.414v3.535l1.658.884-.332,9.723c0,0-4.088.552-4.088.663s-.331,5.413-.331,5.413l-2.541,2.542c0,0-1.437,5.082-1.547,5.082s-2.431,3.093-2.431,3.093l-4.53.111c0,0-2.651-2.541-2.651-2.652s-.442-3.756-.442-3.756-1.768-.553-1.879-.553-.994-4.088-.994-4.088l-3.094-1.767-.22-2.431-2.984-1.326c0,0-.331-2.21-.442-2.32s-1.436-.994-1.546-.994-.111-6.077-.111-6.077l2.652-.442-1.485-1.94-.504-1.706v-1.768l2.21-2.21c0,0-3.978-.552-3.978-.442s-3.866,1.768-3.866,1.658c.11,0-.111,7.181-.111,7.181l-4.53,1.437-3.646,5.855 1.878,1.658z" fill="#544b20" fill-rule="evenodd" stroke="#544b21" stroke-opacity=".99999" stroke-width="1.25"/>
   <path d="m423.712,148.039 2.983-1.768-.111-3.425-2.872-.663-1.106-1.105 3.205.553 3.977-.332 1.326-.663c-.552,1.437-.994,1.326-1.105,1.326s-2.209,1.105-2.209,1.105l.11,3.315c0,0 6.85.883 6.74.883s0,1.326-.221,1.326-7.071-1.547-7.071-1.547l-4.309,2.652 .663-1.657z" fill="#544b20" fill-rule="evenodd" stroke="#544b20" stroke-width="1.25"/>
   <path d="m440.947,127.489-3.977,3.093-2.541,4.53-1.326.221-3.867-5.193-4.419.111c0,0-2.431,6.076-2.431,6.187s-1.768-.221-1.768-.221l-4.64-5.082c0,0-1.437-2.542-1.216-2.542l11.601.111-.11-5.524c0,0-1.768-.553-2.652-1.105 .663-.221 6.298-.221 6.298-.221l-2.431,1.657v4.751l10.054.11 3.425-.883z" fill="#544b20" fill-rule="evenodd" stroke="#544b20" stroke-width="1.25"/>
   <path d="m420.84 130.14h2e-5a1.3258 1.3258 0 0 1 1.3258 1.3258 1.3258 1.3258 0 0 1 -1.3258 1.3258h-2e-5a1.3258 1.3258 0 0 1 -1.3258 -1.3258 1.3258 1.3258 0 0 1 1.3258 -1.3258" fill="#796a3a" fill-opacity=".99608" fill-rule="evenodd"/>
   <path d="m433.43 129.59h2e-5a1.3258 1.3258 0 0 1 1.3258 1.3258 1.3258 1.3258 0 0 1 -1.3258 1.3258h-2e-5a1.3258 1.3258 0 0 1 -1.3258 -1.3258 1.3258 1.3258 0 0 1 1.3258 -1.3258" fill="#7a6b3a" fill-rule="evenodd"/>
   <path d="m413.547,121.301c4.198-1.694 7.181-3.056 12.374-3.535 4.898-.516 8.692.184 13.037.994" fill="none" stroke="#544b20" stroke-width="1.25"/>
   <path d="m415.87 112.35h-3.425l-4.862-5.193 2.763 0.332 3.204 1.436 2.32 3.425z" fill="#544b20" fill-rule="evenodd" stroke="#544b20" stroke-width="1.25"/>
   <path d="m436.528,110.363 7.734-5.965-2.541-.332-2.873,2.651-3.425.553 1.105,3.093z" fill="#544b20" fill-rule="evenodd" stroke="#544b20" stroke-width="1.25"/>
   <path d="m431.968,111.459-12.123.451 .11-1.326 4.42-.442 .552-1.767c0,0 1.326-.11 1.326,0s.994,1.657.994,1.657l4.309.773 .412.654z" fill="#544b20" fill-rule="evenodd" stroke="#544b20" stroke-width="1.25"/>
   <path d="m431.335,106.828-4.198.11-.332-2.32 4.53,2.21z" fill="#544b20" fill-rule="evenodd" stroke="#544b20" stroke-width="1.25"/>
   <path d="m424.264,104.729-.332,2.319-4.087.663 4.419-2.982z" fill="#544b20" fill-rule="evenodd" stroke="#544b20" stroke-width="1.25"/>
   <path d="m401.06 147.04 2.099-5.303-1.878-3.646-1.878 5.414 1.657 3.535z" fill="#544b20" fill-rule="evenodd" stroke="#544b20" stroke-width="1.25"/>
   <path transform="translate(-.11047,.11044)" d="m405.37 149.81 2.541-6.298-4.861 5.082 2.32 1.216z" fill="#544b20" fill-rule="evenodd" stroke="#544b20" stroke-width="1.25"/>
  </g>
  <path transform="matrix(.23818 .11495 -.11717 .23366 492.03 57.353)" d="m103.35 305.55-58.069-148.45 52.68-79.85 88.344 35.076 29.407 156.08c-40.76 10.493-63.478 17.573-112.36 37.149z" fill="#001070" fill-rule="evenodd" stroke="#001071" stroke-opacity=".99608" stroke-width="1.25"/>
  <g transform="matrix(.26544 0 0 .2604 351.11 90.442)">
   <path d="m410.938,120.565-4.063,1.016 .156,7.5-5,1.094-3.497,6.614 2.159,2.044c.111.221-1.703,4.892-1.625,4.892s1.323,1.762 1.323,1.762l1.328,4.063 3.359.468 .86,4.766 5.312.859 4.922,3.516 .312,2.188 5.625.156 3.829,1.25 13.359-1.563 1.797-2.812 .156-3.828 7.188-.235 .657-6.105h3.809l-.474-6.875 3.177.286-.82-3.295-1.975-2.683-.39-4.218-5.625-5.625-1.25-7.344c0,0-3.594-1.641-3.594-1.719s-.234-4.922-.234-4.922l4.062-5.703-.39-2.265-3.75-.079-2.813,2.344c0,0-3.75.391-3.75.469v1.719c0,0 .938,3.203.938,3.281s-4.297,0-4.297,0l-.157-5.078-6.093-3.047c0,0-5.703,3.906-5.703,3.984s-.313,4.532-.313,4.532l-2.734.781-2.813-4.219-4.922-1.875-2.656-.156-.078,3.281 5.156,6.797-.468,3.984z" fill="#faf703" fill-opacity=".99608" fill-rule="evenodd" stroke="#544b20" stroke-opacity=".99608" stroke-width="1.25"/>
   <path d="m449.23 148.04-1.105-4.088" fill="none" stroke="#544b20" stroke-width="1.25"/>
   <path d="m452.33 141.3-1.878-2.762" fill="none" stroke="#544b20" stroke-width="1.25"/>
   <path d="m400.841,138.206 5.856-.332 1.105,5.303 1.988,1.768 .332,9.723 1.878.773 .553-3.867 4.53-.331 .883,7.844-1.104.995 .442,1.215 5.413-.11c0,0 1.216-2.1 1.326-2.1s3.094-.331 3.094-.221 1.215,2.321 1.215,2.321l.884-2.984c0,0 2.873-1.215 2.873-1.104s2.32,3.756 2.32,3.756l3.977-.552-2.43-2.32-.995-5.083 5.524-2.983 2.21,3.757c0,0 2.099.11 1.989,0s-2.431-4.309-2.431-4.309v-8.839l4.199-5.745 5.855-.663v-2.431l-5.855-5.414-1.547-7.513-3.315-1.657-.884.994-3.646.332 3.646,5.414v3.535l1.658.884-.332,9.723c0,0-4.088.552-4.088.663s-.331,5.413-.331,5.413l-2.541,2.542c0,0-1.437,5.082-1.547,5.082s-2.431,3.093-2.431,3.093l-4.53.111c0,0-2.651-2.541-2.651-2.652s-.442-3.756-.442-3.756-1.768-.553-1.879-.553-.994-4.088-.994-4.088l-3.094-1.767-.22-2.431-2.984-1.326c0,0-.331-2.21-.442-2.32s-1.436-.994-1.546-.994-.111-6.077-.111-6.077l2.652-.442-1.485-1.94-.504-1.706v-1.768l2.21-2.21c0,0-3.978-.552-3.978-.442s-3.866,1.768-3.866,1.658c.11,0-.111,7.181-.111,7.181l-4.53,1.437-3.646,5.855 1.878,1.658z" fill="#544b20" fill-rule="evenodd" stroke="#544b21" stroke-opacity=".99999" stroke-width="1.25"/>
   <path d="m423.712,148.039 2.983-1.768-.111-3.425-2.872-.663-1.106-1.105 3.205.553 3.977-.332 1.326-.663c-.552,1.437-.994,1.326-1.105,1.326s-2.209,1.105-2.209,1.105l.11,3.315c0,0 6.85.883 6.74.883s0,1.326-.221,1.326-7.071-1.547-7.071-1.547l-4.309,2.652 .663-1.657z" fill="#544b20" fill-rule="evenodd" stroke="#544b20" stroke-width="1.25"/>
   <path d="m440.947,127.489-3.977,3.093-2.541,4.53-1.326.221-3.867-5.193-4.419.111c0,0-2.431,6.076-2.431,6.187s-1.768-.221-1.768-.221l-4.64-5.082c0,0-1.437-2.542-1.216-2.542l11.601.111-.11-5.524c0,0-1.768-.553-2.652-1.105 .663-.221 6.298-.221 6.298-.221l-2.431,1.657v4.751l10.054.11 3.425-.883z" fill="#544b20" fill-rule="evenodd" stroke="#544b20" stroke-width="1.25"/>
   <path d="m420.84 130.14h2e-5a1.3258 1.3258 0 0 1 1.3258 1.3258 1.3258 1.3258 0 0 1 -1.3258 1.3258h-2e-5a1.3258 1.3258 0 0 1 -1.3258 -1.3258 1.3258 1.3258 0 0 1 1.3258 -1.3258" fill="#796a3a" fill-opacity=".99608" fill-rule="evenodd"/>
   <path d="m433.43 129.59h2e-5a1.3258 1.3258 0 0 1 1.3258 1.3258 1.3258 1.3258 0 0 1 -1.3258 1.3258h-2e-5a1.3258 1.3258 0 0 1 -1.3258 -1.3258 1.3258 1.3258 0 0 1 1.3258 -1.3258" fill="#7a6b3a" fill-rule="evenodd"/>
   <path d="m413.547,121.301c4.198-1.694 7.181-3.056 12.374-3.535 4.898-.516 8.692.184 13.037.994" fill="none" stroke="#544b20" stroke-width="1.25"/>
   <path d="m415.87 112.35h-3.425l-4.862-5.193 2.763 0.332 3.204 1.436 2.32 3.425z" fill="#544b20" fill-rule="evenodd" stroke="#544b20" stroke-width="1.25"/>
   <path d="m436.528,110.363 7.734-5.965-2.541-.332-2.873,2.651-3.425.553 1.105,3.093z" fill="#544b20" fill-rule="evenodd" stroke="#544b20" stroke-width="1.25"/>
   <path d="m431.968,111.459-12.123.451 .11-1.326 4.42-.442 .552-1.767c0,0 1.326-.11 1.326,0s.994,1.657.994,1.657l4.309.773 .412.654z" fill="#544b20" fill-rule="evenodd" stroke="#544b20" stroke-width="1.25"/>
   <path d="m431.335,106.828-4.198.11-.332-2.32 4.53,2.21z" fill="#544b20" fill-rule="evenodd" stroke="#544b20" stroke-width="1.25"/>
   <path d="m424.264,104.729-.332,2.319-4.087.663 4.419-2.982z" fill="#544b20" fill-rule="evenodd" stroke="#544b20" stroke-width="1.25"/>
   <path d="m401.06 147.04 2.099-5.303-1.878-3.646-1.878 5.414 1.657 3.535z" fill="#544b20" fill-rule="evenodd" stroke="#544b20" stroke-width="1.25"/>
   <path transform="translate(-.11047,.11044)" d="m405.37 149.81 2.541-6.298-4.861 5.082 2.32 1.216z" fill="#544b20" fill-rule="evenodd" stroke="#544b20" stroke-width="1.25"/>
  </g>
  <path transform="matrix(.26544 0 0 .2604 359.68 74.414)" d="m476.898,225.824-4.136,4.931 .318,4.136 8.59-.159c2.757-.663 3.446-1.644 3.977-2.784 .848-1.405.265-2.174.477-4.056l-9.226-2.068z" fill="#a0210c" fill-rule="evenodd" stroke="#a0210c" stroke-opacity=".99652" stroke-width="1.25"/>
  <path transform="matrix(.26544 0 0 .2604 365.26 77.563)" d="m476.58,226.142-3.5,3.34v3.818l7.636-.159c2.757-.663 3.127-1.167 3.658-2.306 .848-1.406.584-1.379.796-3.261l-8.59-1.432z" fill="#a0210c" fill-rule="evenodd" stroke="#a0210c" stroke-opacity=".99652" stroke-width="1.25"/>
  <path transform="matrix(.26544 0 0 .2604 374.08 74.829)" d="m476.898,225.983-3.977,4.136 .159,3.181 8.113.318c2.757-.663 2.332-.53 3.181-1.988 .848-1.405.584-1.697.796-3.579l-8.272-2.068z" fill="#a0210c" fill-rule="evenodd" stroke="#a0210c" stroke-opacity=".99652" stroke-width="1.25"/>
  <path transform="matrix(.26544 0 0 .2604 380.12 76.9)" d="m477.852,225.506-4.613,3.976v3.977l8.59.796c2.757-.663 2.969-1.485 3.659-2.466 .848-1.405.424-1.538.636-3.42l-8.272-2.863z" fill="#a0210c" fill-rule="evenodd" stroke="#a0210c" stroke-opacity=".99652" stroke-width="1.25"/>
  <path transform="matrix(.26544 0 0 .2604 359.68 74.414)" d="m497.1,131.017 16.225,10.976c3.05-2.579 9.395-1.016 11.88-.301 4.462,1.187 7.607,3.88 11.504,4.596 7.128,1.826 15.668,3.087 22.136,2.371 6.469-.715 11.902-4.161 16.677-6.666v-1.59h-3.181c-5.164,1.894-12.4,1.998-17.941,1.256s-7.034-3.274-15.305-5.71l-.636-1.591c10.04.486 12.079.221 16.282-1.647 4.109-1.112 5.96-3.543 8.28-5.222l-.065-1.88-3.023-.159c-3.894,2.644-6.376,3.122-12.342,2.565-5.429-.56-10.319-3.71-13.961-3.776-3.863.03-3.681-1.851-7.417-2.036-5.939-.53-12.358.277-17.978,1.656-6.734,2.068-7.742,3.817-11.135,7.158z" fill="#a0210c" fill-rule="evenodd" stroke="#000" stroke-width="1.25"/>
  <path transform="matrix(.26544 0 0 .2604 359.68 74.414)" d="m500.251,128.583c1.553.36 3.295.816 4.565,1.553s.942.722 2.307,1.741c-.219-1.317-.157-1.223-1.035-2.258-.879-1.036-2.323-1.977-3.483-2.825l-2.354,1.789z" fill-rule="evenodd" stroke="#000" stroke-width="1.25"/>
  <path transform="matrix(.26544 0 0 .2604 359.68 74.414)" d="m513.807,140.444c.031-1.427-.69-2.667-1.224-3.906s-.973-2.291-1.977-3.53c1.255.36 1.946.909 3.013,2.211s1.004,2.605 1.223,4.471l-1.035.754z" fill-rule="evenodd" stroke="#000" stroke-width="1.25"/>
  <path transform="matrix(.26544 0 0 .2604 359.68 74.414)" d="m516.914,123.029c.377.989 1.116,1.668 1.742,3.778 .541,1.917.799,4.6.799,4.6-.204-1.428.157-3.044-.047-4.472s-.973-2.667-1.177-4.095l-1.317.189z" fill-rule="evenodd" stroke="#000" stroke-width="1.25"/>
  <path transform="matrix(.26544 0 0 .2604 359.76 74.414)" d="m529.81,123.876 .659,7.908 .754-7.437-1.413-.471z" fill-rule="evenodd" stroke="#000" stroke-width="1.25"/>
  <path transform="matrix(.26544 0 0 .2604 359.73 74.39)" d="m526.704,140.35c.314-1.286.251-2.573.094-3.86s-.597-2.384-1.036-3.859c1.255,1.098 1.758,2.479 2.448,3.954 0,1.474-.376,2.76-1.506,3.765z" fill-rule="evenodd" stroke="#000" stroke-width="1.25"/>
  <path transform="matrix(.26544 0 0 .2604 359.71 74.341)" d="m540.448,137.055c.047,0 .401,2.683-.199,4.613s-1.024,2.071-2.154,3.107c1.506-1.129 2.824-1.506 3.295-2.73 .471-1.883-.754-4.707-.942-4.99z" fill-rule="evenodd" stroke="#000" stroke-width="1.25"/>
  <path transform="matrix(.26544 0 0 .2604 359.91 74.512)" d="m542.048,133.855c-.941.157-1.129-3.829-1.694-5.743 .408-.22.816-.157 1.224.753 .439.534.313,3.327.47,4.99z" fill-rule="evenodd" stroke="#000" stroke-width="1.25"/>
  <path transform="matrix(.26544 0 0 .2604 359.68 74.316)" d="m552.215,133.007 .377-3.295 1.035-.094v2.824c0,.095-1.317.659-1.412.565z" fill-rule="evenodd" stroke="#000" stroke-width="1.25"/>
  <path transform="matrix(.26544 0 0 .2604 359.66 74.316)" d="m551.556,141.856c.597,1.004 1.663,2.197 1.789,3.295s-.22,1.632-1.035,3.295l1.506.094c.815-1.333 1.067-2.29.942-3.341s-.629-2.103-1.695-2.966l-1.507-.377z" fill-rule="evenodd" stroke="#000" stroke-width="1.25"/>
  <path transform="matrix(.26544 0 0 .2604 359.71 74.316)" d="m562.57 142.7 0.376 4.612 1.224-0.659-0.282-3.953h-1.318z" fill-rule="evenodd" stroke="#000" stroke-width="1.25"/>
  <path transform="matrix(.26544 0 0 .2604 359.68 74.414)" d="m496.094,131.831c-3.672,1.083-5,3.151-6.797,4.938l-10.346-5.341c-1.678,1.419-2.324,3.446-1.517,5.521 .807,2.074 4.053,5.321 6.361,6.926-.578,2.865-1.43,5.027-2.439,7.54-1.125,2.825-3.54,6.394-3.61,7.54-.138,1.312-.558,4.123 1.367,4.872s8.118-.519 10.184-.38c-.336,1.127-1.14,3.098-.866,3.944s.829,1.128 2.51,1.177c-.484,1.047-1.529,2.374-1.028,2.999 1.298,1.001 2.785.828 4.036.75-1.973,2.332-6.902,6.82-8.501,8.825-1.692,2.332-1.837,4.851 1.442,4.604-1.22,1.378-2.393,2.709-2.206,3.899 .282,1.425.985,2.381 3.329,1.555-1.387,3.197-.476,6.066.013,9.403-1.184,2.525-.681,4.863-.975,7.763-2.412,1.392-2.712,3.206-4.28,6.005-1.414,3.03-4.046,3.857-5.506,10.358l9.465,2.406c.348-1.337 1.586-2.205 1.934-3.541s.32-3.002.151-4.48c1.878-2.772 5.678-8.498 6.899-11.551 2.067-1.125 3.57-1.829 5.121-1.829s2.538.938 4.183,1.829c-.728,2.573-2.769,5.379-2.887,8.984v9.947c-.412,2.471-3.169,2.504-4.332,9.946l8.503,2.246c1.444-2.503 3.731-2.848 4.331-3.85l.614-10.334c1.082-4.878 7.792-8.911 7.889-14.211 2.408-.033 3.317.217 4.272-.285 1.283-.455 1.723-1.191 2.725-2.115 .386,1.595 1.617,1.735 2.66,1.735s3.116-1.5 3.972-2.11c.602.865.921,1.683 2.179,1.985s4.813-.24 6.259-.595l-6.987,11.652c-.261,1.123.088,1.824-.454,3.135-.508,1.177-1.532,1.744-1.993,2.828l7.921,1.929 1.264-3.4c1.679-.721 3.031-1.114 3.913-2.21s.874-3.178 1.381-4.368c2.706-2.002 6.959-6.349 9.946-9.946 2.028.349 4.9,2.058 5.99,4.612 .153,2.74.351,7.779-.856,11.27l-5.134,8.182-.582,1.342 8.082,2.935 5.134-4.011 .2-5.721c2.579-4.642 6.269-7.179 9.786-10.106 0-.161.375-6.144.234-6.378-.869-.674-1.456-.269-1.763-1.506s-.097-4.63.066-5.96c.508-.642 1.579-1.379 1.524-1.927-1.399-1.565-.971-5.616-.542-8.775-.105-3.597 4.715-7.85 5.454-9.946l.301-3.776c-.493-.928-1.219-1.481-1.243-2.269s.937-2.091 1.524-2.926l1.022-1.777-.16-9.305c-.286-1.005-1.135-2.572-1.937-2.733s-1.98.759-2.876,1.77l-4.645,3.495c-2.227.694-4.173.967-8.088-.027l-5.972.121c-3.136.893-4.772,1.037-7.721-.274l-3.536.058c-1.102.612-2.627,1.597-3.823,1.833-1.195.235-2.813.283-4.009-.091-9.128.626-6.861,1.298-9.47,1.877-2.095-.405-1.423-1.466-9.566-1.544l-3.228-.963c-4.073-2.751-7.209-7.143-9.922-12.192 8.484-2.477 12.044-5.049 14.618-10.949l-11.997.457-16.965-11.491z" fill="#dc9103" fill-rule="evenodd" stroke="#544b20" stroke-width="1.25"/>
  <path transform="matrix(.26544 0 0 .2604 359.74 74.18)" d="m491.652,147.821 3.397,1.467c.415.503 1.219,1.083 1.751,1.117s.984-.519 1.438-.915l3.127-1.669c-1.853-.273-2.418-1.445-4.388-1.445s-3.355,1.054-5.325,1.445z" fill-rule="evenodd" stroke="#000" stroke-width="1.25"/>
  <path transform="matrix(.26544 0 0 .2604 359.68 74.414)" d="m506.769,147.782c1.104.664 3.107,1.992 4.758,1.992 1.807-.156 1.778-1.445 4.366-2.304l3.796-3.128c-2.29.026-7.237.483-9.956,1.33-2.29.612-2.822,1.537-2.964,2.11z" fill-rule="evenodd" stroke="#000" stroke-width="1.25"/>
  <path transform="matrix(.26544 0 0 .2604 359.72 74.465)" d="m497.929,187.567c-.001.286-.471.495-.707.156-.291-4.058-1.168-6.905-2.396-10.065 1.386,2.404 2.537,6.293 3.103,9.909z" fill-rule="evenodd" stroke="#000" stroke-width="1.25"/>
  <path transform="matrix(.26544 0 0 .2604 359.82 74.384)" d="m507.27,204.531c-1.544.16-2.152-.072-3.696.088-.17-4.083-.185-8.752-.16-11.663 .589.074 2.311,1.906 3.33,4.793 .266,2.13.65,4.534.526,6.782z" fill-rule="evenodd" stroke="#000" stroke-width="1.25"/>
  <path transform="matrix(.26544 0 0 .2604 359.68 74.414)" d="m518.034,188.202c.696.195 1.666.196 1.893-.273 .295-.87-.583-1.818-.912-2.883-1.145-2.287-1.78-4.768-2.259-5.843-.504-.324-1.047-.295-.927.241 .657,2.034 1.783,7.974 2.205,8.758z" fill-rule="evenodd" stroke="#000" stroke-width="1.25"/>
  <path transform="matrix(.26544 0 0 .2604 359.68 74.414)" d="m528.976,186.971c.075.493-1.569-.224-1.846-.785-.024-1.089-2.237-9.054-1.871-9.362 .465-.232 1.907,2.662 2.372,3.994 .109.788 1.079,3.685 1.345,6.153z" fill-rule="evenodd" stroke="#000" stroke-width="1.25"/>
  <path transform="matrix(.26544 0 0 .2604 359.68 74.414)" d="m527.425,203.384c-.039.557 1.25.099 1.758-.32 1.473-2.347 3.298-4.811 3.834-5.751 .323-1.005 1.935-7.4 1.438-7.349-.176-.185-1.578,3.172-3.388,6.485-1.883,3.374-3.662,6.612-3.642,6.935z" fill-rule="evenodd" stroke="#000" stroke-width="1.25"/>
  <path transform="matrix(.26544 0 0 .2604 359.68 74.414)" d="m538.399,199.947c-.536.263 1.076-5.529 1.204-6.555 .295-1.622.706-4.533 1.352-8.303 .789,5.265-.142,10.921-2.556,14.858z" fill-rule="evenodd" stroke="#000" stroke-width="1.25"/>
  <path transform="matrix(.26544 0 0 .2604 359.68 74.414)" d="m544.981,182.22c-.352.313-5.066-7.63-4.633-7.669 .121-.352 3.951,4.971 4.498,5.908 .228.444.454,1.122.135,1.761z" fill-rule="evenodd" stroke="#000" stroke-width="1.25"/>
  <path transform="matrix(.26544 0 0 .2604 359.68 74.414)" d="m556.013,188.117c-.352-.271-.211-2.807-.909-5.592s-1.883-5.469-1.648-6.231c.22-.401.987-.216 1.598.32 .291,1.515.972,7.328 1.771,11.109-.011.366-.411.615-.812.394z" fill-rule="evenodd" stroke="#000" stroke-width="1.25"/>
  <path transform="matrix(.26544 0 0 .2604 359.68 74.414)" d="m563.723,181.06c-.377-.409 1.024,2.727 2.044,6.453s1.542,10.31 1.79,9.842c.701-.474.582-1.065 1.674-1.305s5.152.146 4.916-.132c-2.512-2.281-4.829-4.172-6.56-6.648s-2.875-5.734-3.864-8.21z" fill-rule="evenodd" stroke="#000" stroke-width="1.25"/>
  <path transform="matrix(.26544 0 0 .2604 359.68 74.414)" d="m573.22,215.04c-.788.579-2.279,1.04-2.715.799-2.395-5.077-3.736-8.396-7.069-13.825-.859-1.289-2.997-1.09-2.876-1.598 .08-.586 1.201-.351 1.926-1.201s.82-1.924 1.269-2.314c-.98,2.343 1.594,5.936 3.036,8.787 .959.266 1.722.26 2.173.838 .107.274-1.037.468-.891,1.445l2.432,4.992c.792.606 2.013.94 3.195,1.118 .309.28-.242.678-.48.959z" fill-rule="evenodd" stroke="#000" stroke-width="1.25"/>
  <path transform="matrix(.26544 0 0 .2604 359.68 74.414)" d="m578.199,170.66c1.503.085 2.861.219 3.307-.56 .919-1.929 1.452-3.519.833-4.773-2.356.193-4.136,1.299-5.098,3.416 .031.735.205,1.278.958,1.917z" fill-rule="evenodd" stroke="#000" stroke-width="1.25"/>
  <path transform="matrix(.26544 0 0 .2604 359.68 74.414)" d="m602.95 169.21c23.293 5.016 44.856 10.724 66.419 17.815s42.087 15.566 62.958 24.733l-34.939 71.953c-19.502-7.565-38.758-13.663-58.015-20.004s-38.023-11.951-57.524-18.048l21.101-76.449z" fill="#fdfcfc" fill-rule="evenodd" stroke="#fdfcfc" stroke-width="1.25"/>
  <path transform="matrix(.26544 0 0 .2604 359.68 74.414)" d="m598.31 186.21s32.532 7.399 64.056 17.734 62.283 23.603 62.161 23.603c-0.245 0-19.814 41.095-19.814 41.095-18.997-7.705-38.974-14.922-58.705-21.404s-39.463-12.719-59.684-17.489l11.986-43.539z" fill="#e6151e" fill-rule="evenodd" stroke="#e6151e" stroke-width="1.25"/>
  <path transform="matrix(.26544 0 0 .2604 359.68 74.414)" d="m601.012,206.307c3.2-1.822 5.367-2.314 7.09-5.317l11.52.001 .149,4.282c2.831,1.379 4.48,2.906 7.311,4.284s6.844,2.609 9.675,3.988l24.814,2.216c3.323.541 8.124,1.969 11.004,3.692s4.727,3.89 6.278,6.647c5.095,1.822 10.192,2.905 15.435,3.693s11.816,1.132 16.912,1.329c2.511.887 2.511,2.216 1.329,3.545 0,0-2.807,3.877-10.469,3.914s-16.34-4.357-20.106-3.766c.148,2.363 4.136,7.238 8.715,9.158l-.147,11.224-2.069,1.921-2.215-1.477c1.773-2.658 1.181-5.761.443-8.419-1.699-2.511-1.92-3.545-5.095-3.692-3.767-.74-6.5-1.774-11.3-5.171l-1.773.296c-1.034,1.871-2.068,3.151-4.431,4.283l-4.874-.295c0,0-11.226-2.511-11.226-2.659s-.148-1.772.148-1.92c.295-.148 3.84-.147 4.135-.147 2.364.738 7.386.738 7.386.738l-.148-4.284 7.533-.443c-1.526-5.317-2.019-8.715-9.01-9.896l-21.861.591 .296,3.102c-5.465-.739-15.361-.871-20.416.836-2.954.296-7.205,1.822-9.125,1.822l-2.216-.59c-1.477-.443-1.477-.886-.886-2.216 9.453-.739 10.931-1.477 13.737-2.806 .148-.886-1.034-2.807-1.477-2.955-5.908-.295-10.635.148-12.259-.147-2.511-.739-5.909-2.068-5.909-2.216s-.443-2.363-.295-2.363 3.841,1.034 3.987,1.034c3.989.738 10.931.443 12.556-.443l.148-3.25c-.148-1.477-1.182-2.806-1.478-2.954-.295-.148-6.499-.886-8.715-.886-3.594-.64-3.052-2.462-3.101-4.284z" fill-rule="evenodd" stroke="#010001" stroke-opacity=".99608" stroke-width="1.25"/>
  <path transform="matrix(.26544 0 0 .2604 359.68 74.414)" d="m648.72,232.599c3.348,1.083 5.81,1.427 10.783,1.772l7.533-.443c-1.526-5.317-2.019-8.715-9.01-9.896l-21.861.591 .296,3.102c6.647,2.51 9.896,3.889 12.259,4.874z" fill="#fdfdfd" fill-opacity=".99608" fill-rule="evenodd" stroke="#010001" stroke-opacity=".99608" stroke-width="1.25"/>
  <path transform="matrix(.26185 .042682 -.043508 .25688 403.49 61.862)" d="m101.18 306.6-63.57-141.57 47.267-83.313 91.45 34.667 40.201 154.53c-42.015 10.284-68.887 19.038-115.35 35.686z" fill="#011171" fill-opacity=".99608" fill-rule="evenodd" stroke="#011171" stroke-width="1.25"/>
  <path transform="matrix(.26544 0 0 .2604 359.68 74.414)" d="m78.281 151.27 13.75 12.344-3.9062 19.844 19.063-6.719 14.062 12.344 3.125-18.281 15.625-5.157-11.875-13.125 3.906-18.124s-18.75 5.624-18.75 5.468-12.499-12.187-12.656-12.031-4.0625 17.187-4.0625 17.187l-18.281 6.25z" fill="#fbfd10" fill-opacity=".99608" fill-rule="evenodd" stroke="#fdc605" stroke-opacity=".99608" stroke-width="1.25"/>
  <path transform="matrix(.26544 0 0 .2604 359.68 74.414)" d="m78.594 151.42 61.25 14.064-15.782 5.468-14.218-11.719s11.562 29.375 11.406 29.219-13.437-11.407-13.906-11.875l2.344-17.344s-21.25 24.063-21.25 23.907 4.0625-19.688 4.0625-19.688l-13.906-12.032z" fill="#ffc500" fill-rule="evenodd"/>
  <path transform="matrix(.26544 0 0 .2604 359.68 74.414)" d="m96.406 145.02 13.594 13.282-9.375-30.781-4.2188 17.499z" fill="#ffc500" fill-rule="evenodd"/>
  <path transform="matrix(.26544 0 0 .2604 359.68 74.414)" d="m113.126,140.019c.156.156-3.282,17.968-3.126,17.968 1.562-1.875 22.031-23.594 21.876-23.594s-18.438,5.782-18.75,5.626z" fill="#ffc500" fill-rule="evenodd"/>
  <path transform="matrix(.20619 .16399 -.16716 .20228 546.72 62.466)" d="m78.281 151.27 13.75 12.344-3.9062 19.844 19.063-6.719 14.062 12.344 3.125-18.281 15.625-5.157-11.875-13.125 3.906-18.124s-18.75 5.624-18.75 5.468-12.499-12.187-12.656-12.031-4.0625 17.187-4.0625 17.187l-18.281 6.25z" fill="#fbfd10" fill-opacity=".99608" fill-rule="evenodd" stroke="#fdc605" stroke-opacity=".99608" stroke-width="1.25"/>
  <path transform="matrix(.20619 .16399 -.16716 .20228 546.72 62.466)" d="m78.594 151.42 61.25 14.064-15.782 5.468-14.218-11.719s11.562 29.375 11.406 29.219-13.437-11.407-13.906-11.875l2.344-17.344s-21.25 24.063-21.25 23.907 4.0625-19.688 4.0625-19.688l-13.906-12.032z" fill="#ffc500" fill-rule="evenodd"/>
  <path transform="matrix(.20619 .16399 -.16716 .20228 546.72 62.466)" d="m96.406 145.02 13.594 13.282-9.375-30.781-4.2188 17.499z" fill="#fdc605" fill-rule="evenodd"/>
  <path transform="matrix(.20619 .16399 -.16716 .20228 546.72 62.466)" d="m113.126,140.019c.156.156-3.282,17.968-3.126,17.968 1.562-1.875 22.031-23.594 21.876-23.594s-18.438,5.782-18.75,5.626z" fill="#fdc605" fill-rule="evenodd"/>
  <path transform="matrix(.26544 0 0 .2604 359.68 74.414)" d="m175.37 121.34c21.456-10.454 45.538-18.61 70.935-22.167 24.41-3.5582 48.84-3.8664 73.908-3.8117 0 0 3.284 39.132 3.284 39.461-19.704 0.164-34.388-0.209-69.147 4.374-34.564 4.886-48.802 9.073-69.82 17.283l-9.16-35.14z" fill="#e6141d" fill-rule="evenodd" stroke="#e6141d" stroke-width="1.25"/>
  <path transform="matrix(.26544 0 0 .2604 359.68 74.414)" d="m193.74 190.62c-0.329 0 10.855 41.397 10.855 41.397 20.635-5.309 41.598-9.305 62.561-12.315s43.257-4.725 63.563-6.093l-3.595-40.376c-21.401-1.314-45.792-1.314-67.85 1.641s-43.476 8.193-65.534 15.746z" fill="#e6141d" fill-opacity=".99608" fill-rule="evenodd" stroke="#e6141d" stroke-width="1.25"/>
  <path transform="matrix(.26544 0 0 .2604 359.68 74.414)" d="m95.246 318.45h598.87v391.42c-15.222 152.44-158.96 266.38-290.3 265.51-141.78 6.305-298.57-111.99-309.87-266.82l1.3048-390.12z" fill="#fff" fill-rule="evenodd" stroke="#e5141d" stroke-width="4"/>
  <path transform="matrix(.25438 0 0 .24955 364.04 81.437)" d="m95.246 318.45h598.87v391.42c-15.222 152.44-158.96 266.38-290.3 265.51-141.78 6.305-298.57-111.99-309.87-266.82l1.3048-390.12z" fill="#d61517" fill-rule="evenodd" stroke="#e5141d" stroke-width="4"/>
  <path transform="matrix(.26544 0 0 .2604 359.68 74.414)" d="m452.68 334.03h110.6v122.35h-110.6z" fill="#fff" fill-rule="evenodd"/>
  <path transform="matrix(.26544 0 0 .2604 359.39 74.414)" d="m225.6 334.03h110.6v122.35h-110.6z" fill="#fff" fill-rule="evenodd"/>
  <path transform="matrix(.26544 0 0 .2604 359.68 74.414)" d="m109.11 460.43h112.08v119.42h-112.08z" fill="#fff" fill-rule="evenodd"/>
  <path transform="matrix(.26544 0 0 .2604 359.68 74.414)" d="m339.51 460.43h109.49v119.42h-109.49z" fill="#fff" fill-rule="evenodd"/>
  <path transform="matrix(.26544 0 0 .2604 359.68 74.414)" d="m566.58 460.43h112.83v119.42h-112.83z" fill="#fff" fill-rule="evenodd"/>
  <path transform="matrix(.26544 0 0 .2604 359.68 74.414)" d="m452.68 583.52h110.6v121.25h-110.6z" fill="#fff" fill-rule="evenodd"/>
  <path transform="matrix(.26544 0 0 .2604 359.68 74.414)" d="m224.5 583.52h110.6v121.25h-110.6z" fill="#fff" fill-rule="evenodd"/>
  <path transform="matrix(.26544 0 0 .2604 359.68 74.319)" d="m339.51 708.81h109.49v121.25h-109.49z" fill="#fff" fill-rule="evenodd"/>
  <path transform="matrix(.26544 0 0 .2604 359.68 74.414)" d="m567.28,709.505 .028,119.115 67.341.089c30.721-45.75 41.242-90.313 44.131-119.178-.498,0-111.061-.054-111.5-.026z" fill="#fff" fill-rule="evenodd" stroke="#fff" stroke-width="1.25"/>
  <path transform="matrix(.26544 0 0 .2604 359.68 74.414)" d="m453.36 834.44 0.017 119.54c47.9-10.147 86.914-33.282 109.25-50.264l9e-3 -69.323-109.27 0.048z" fill="#fff" fill-rule="evenodd" stroke="#fff" stroke-width="1.25"/>
  <path transform="matrix(.26544 0 0 .2604 359.68 74.414)" d="m225.34 834.21-0.158 67.544c37.624 27.974 80.592 44.345 109.21 50.64l0.019-118.14-109.07-0.044z" fill="#fff" fill-rule="evenodd" stroke="#fff" stroke-width="1.25"/>
  <path transform="matrix(.26544 0 0 .2604 359.68 74.414)" d="m109.32 709.34c3.572 46.8 23.131 90.209 44.144 119.57l67.057-0.115 0.012-119.5-111.21 0.051z" fill="#fff" fill-rule="evenodd" stroke="#fff" stroke-width="1.25"/>
 </g>
</svg>
