<?xml version="1.0" encoding="UTF-8"?>
<svg viewBox="0 0 826.75982231 496.06298" xmlns="http://www.w3.org/2000/svg">
 <path d="m0 8e-6h826.76v248.03h-826.76z" fill="#fff" fill-rule="evenodd"/>
 <path d="m0 248.03h826.76v248.03h-826.76z" fill="#007900" fill-rule="evenodd"/>
 <path d="m730.003,69.5305c-4.975,34.8205-.032,85.2565 8.609,101.7525-10.484-3.767-22.147-12.641-27.917-24.264l-12.262,38.091c25.921,52.629-41.483,94.053-97.577,96.923 34.24,18.581 79.053,41.702 79.053,53.878-13.62,5.123-21.742-9.393-32.613-14.089 11.655,30.318 4.455,52.781-1.565,82.707-5.893,7.004-.006,11.653 2.348,17.479l16.176,6.262 2.609,2.349c0,0 11.387.521 14.519,16.436-7.577-9.198-17.911-6.262-17.911-6.262l-3.913,2.609-9.132-5.478c-10.083-6.698-20.342-6.336-31.308-1.566-5.566,3.349-11.309,3.171-16.698.522-6.175-6.704-19.567-.783-19.829-.783s-14.349,9.392-14.349,9.392-3.392-.783-3.653-.783-9.143-.204-20.871,7.305c3.091-15.954 14.61-15.653 14.61-15.653-1.069-3.333 1.392-2.783 2.088-4.175 3.796-4.209 11.827-3.478 17.74-5.217l-33.916-1.566 .521-1.565c-7.414-.647-13.241-.939-17.48,6.001-.427-11.654 9.377-13.782 15.654-16.438 2.84-4.395 9.032-3.675 14.872-3.13 0,0 32.351,12.001 30.003,11.218s-38.091-16.153-38.091-16.153c-1.765-2.646.521-4.197.521-4.458s-9.64-6.098-16.437.522c1.319-13.845 17.742-10.175 17.742-10.175 .934-4.49 5.396-3.863 7.566-1.826l12.783,12.523 12.003,7.566c11.134,4.912 22.973,3.122 32.872-12.784-3.379-8.212-1.818-11.838 5.741-16.698-1.946-5.479-1.245-11.134 1.043-16.436-3.352-4.94-5.354-18.741-2.086-21.917-7.496-2.646-10.437-10.175-10.959-10.175-6.873,1.412-12.831-.829-15.654-3.652-10.635,4.694-19.682,2.154-26.612-3.913-12.211,4.164-23.361,1.272-29.22-3.915-9.351,2.294-24.059-4.414-26.613-12.001-5.377,0-10.876-6.008-16.698-5.478-4.788,7.874-6.047,7.103-13.305,13.566-7.415,7.723-4.773,20.738 1.044,26.873l27.393,10.437c20.874,1.204 25.867,13.171 25.57,24.785-7.883-2.363-8.178-3.668-12.003-3.913l-16.176-5.741c-16.844,27.172-40.744,46.227-74.878,55.051 6.522,3.074 13.046,1.913 19.568,2.87l7.045,4.175c10.15,2.133 17.302,5.327 17.219,14.87-6.791-7.568-13.406-7.375-18.785-3.652-10.817,4.537-17.046-5.392-25.569-8.088-7.224-5.206-14.27-3.002-20.611.26-7.122-4.668-15.301-2.281-23.481-1.304-10.193,1.013-21.797,3.616-26.873,9.392-3.352,2.646-4.696-1.304-4.957-1.043-11.729-3.796-16.958,6.523-16.958,6.523-2.78-11.919 3.259-14.489 9.653-16.176l-13.045-7.566c-.27-1.489-1.248-1.743 1.305-2.349-5.129-3.285-10.257-.749-15.915,4.435 .523-10.87 13.927-17.683 19.567-14.087 4.065-3.005 11.483-3.539 16.959,1.043 6.16,4.659 15.495,5.261 21.655,3.392-2.659-7.353-11.14-11.706-15.916-12.002-6.734-1.638-14.526-3.981-12.262-8.088-4.155-5.915-10.073-4.065-16.697.783 2.372-13.453 16.566-12.087 20.349-9.132 1.367-4.142 5.733-5.109 9.393-.783 5.775,1.548 6.609,5.566 9.915,8.349 6.41,6.562 16.349,9.95 24.524,11.219 7.641-4.386 16.693-5.066 25.569-5.218 1.702-7.454 6.579-9.087 13.044-9.131-.22-6.645 3.086-9.584 9.393-12.524 0,0-9.991-.869-10.697-7.305-16.76-.085-27.81-2.368-29.221-13.306-15.26-4.803-24.873-16.309-18.785-28.699-7.584,2.293-12.521,2.47-19.046,0-10.585,9.288-26.991,20.516-37.047,14.279-4.764,4.94-15.916,10.768-16.176,10.768-1.321,11.82-10.437,26.35-10.437,26.35-4.528-11.387-13.112-23.834-12.523-35.045-15.263,19.838-24.177,25.74-36.265,38.698-9.793,10.065-14.822,21.895-18.264,34.96 7.301,4.185 16.698,3.479 25.047,5.219 2.266,2.965 1.739,1.739 2.609,2.609 8.905.175 15.48,5.096 15.393,14.349-7.943-8.206-15.914-3.13-15.914-3.13-6.519,5.413-14.784,2.969-22.699,0-6.864-7.327-16.872-11.51-25.308-5.218-10.174,8.289-14.763-4.377-30.525,4.435-11.222,10.208-26.809,11.162-31.048,4.957 0,0-7.784-3.092-18.784,8.61 3.143-19.03 14.871-17.219 14.871-17.219-.173-2-.347-4.001-.521-6.001l-4.435-1.566c-7.916-3.494-17.753-2.622-22.177,1.043 3.025-12.469 14.607-12.542 23.22-11.218l4.696-5.218c-3.578-1.388-2.788-3.826-1.826-6.262-4.783-4.8-8.344-5.76-14.35-.782 1.894-12.127 13.39-11.336 21.394-6.002 4.339-2.714 13.743,2.43 19.829,6.002 18.532,6.22 30.08,7.026 48.788-16.959 .16-11.407.845-15.831 10.957-22.698-3.851-6.962-1.765-13.924 7.828-17.219-3.403-3.216-.772-7.949 1.586-12.91-13.746-.617-29.162.812-39.939,4.56-3.559,10.875-8.164,22.273-15.914,29.482 .175-28.326-16.148-48.404-36.004-69.66-22.78-14.924-32.869-44.97-34.701-54.789-4.188,10.997-7.044,12.784-7.044,13.044-5.064,5.498-1.622,18.002-12.096,18.264-9.7758,11.96-21.5603,4.957-21.5603,4.957 11.1552-1.554 13.0564-6.076 15.1322-13.567-6.9875-1.647-.8798-7.483 2.609-9.654 2.1681-.419 7.6541-14.282 11.2191-13.827l4.435-40.962c-8.974-3.728-14.9792-9.553-14.3495-19.568-3.3163-4.262-5.5847-10.442-1.0437-12.784-1.9929-5.134-4.3349-10.792-11.7406-12.784 17.1678-2.978 19.3198,7.486 23.7418,8.349 5.045,3.018 8.518,20.353 14.611,29.482-4.63-14.967-2.276-25.047 2.348-38.092 .013-7.049-2.943-13.921-9.914-18.003 14.666-.348 20.611,14.872 21.132,15.395 9.253,12.045-3.233,20.415.783,25.828 2.87-2.174 4.344-7.143 8.61-6.522 3.571-3.906 6.272-8.164 6.001-16.959 8.987,5.126 6.8,12.694 3.913,20.09 .535,11.065-1.025,14.096-8.348,18.002-7.334,4.365-8.7,7.979-7.827,13.305 8.905,9.517 10.697,38.875 10.697,38.875 8.964,2.701 12.236,10.433 11.74,16.697 8.468-.756 16.184,5.802 17.48,11.742 5.005-4.699 12.061-.325 16.959,4.696 1.727-2.619 5.397-3.834 9.393-2.349-.009-4.603 2.579-7.478 6.782-11.218-10.126-7.857-12.913-27.268-1.564-37.832-2.27-14.228 2.058-27.648 9.392-29.22-2.371-15.595 6.956-20.541 10.697-24.264-2.445-7.158 5.464-20.265 9.914-20.35-4.453-7.42 3.801-20.956 10.437-21.916 0-.261-4.436-10.436-4.436-10.436s-21.251,3.19-25.046,22.698c-2.619-4.056-5.219-10.175-5.219-10.175s-8.486,22.701-8.748,22.18c-7.33-4.45-4.035-15.396-4.035-15.396-5.318-5.824-4.349-13.219-6.524-19.829l-59.746-2.609c0,0 6.783,12.524 6.783,12.263-7.069.132-41.589-29.392-48.2662-54.5287 17.6932,13.8953 36.5662,17.5785 56.6162,21.6548l-15.916,7.8269c54.987,4.713 111.928-5.479 111.666-5.74-6.152-12.8286-26.351-12.7838-26.351-12.7838v8.6097l-5.479-3.9134c-.086,2.1741-.173,4.3484-.26,6.5225l-4.175-2.8698c-.434,1.8262-.87,3.6528-1.304,5.4788l-4.175-2.87c-.609,1.652-1.217,3.305-1.826,4.957-1.566-1.217-3.13-2.435-4.696-3.652 0,0-3.914-.001-4.175-.522-2.554-13.0486-14.872-13.3062-14.872-13.3062-14.458-1.8612-25.743,1.2176-38.613,1.8263 18.901-23.7112 44.869-21.5005 69.661-24.0029 1.807-10.5428 11.075-13.6228 21.915-15.1323 0,0 50.876,2.609 51.137,2.609 6.545-8.6408 26.873-12.2623 26.873-12.2623 7.131-3.5657 15.048-2.0254 21.394-10.697-1.656,11.8443-1.74,14.2627-2.609,21.394l6.523.7826c-5.914,3.8264-13.791,9.224-19.706,13.0506-6.584,9.9733-5.312,10.1276-2.471,15.3876l6.001,10.4362c10.145,3.1253 17.541,7.4287 19.829,14.0884-10.974-1.315-18.962.727-18.785,5.479 .216,3.499 8.547,5.057 11.939,7.144 6.301,5.906 8.369,11.107 8.672,18.424-8.088-.434-18.646-12.513-24.264-1.304-2.681,5.483.283,12.908 7.305,15.393 12.879,3.529 14.088,21.133 13.827,21.133s-28.291-18.709-26.879-1.242c-.468,7.716 3.123,9.432 6.008,11.678 8.398,3.101 15.562,6.731 14.61,15.654-12.081-4.352-17.811-.939-19.306,6.001l4.696,13.567c16.349-3.306 32.7-6.609 49.05-9.915 7.145-6.511 10.363-17.341 9.652-28.959 .853-17.306-5.363-32.65 16.698-51.92 45.997-38.3298 92.78-68.412 145.062-97.316-10.605,17.6741-18.237,50.6091 9.518,52.7048 8.902.1319 106.582-40.9642 106.582-40.9642-33.961,24.7856-73.031,59.39-27.655,74.3564-41.632,12.961-76.162,55.059-45.919,88.968-21.602-6.152-49.944,7.771-55.05,23.481 24.573-.183 46.789-1.542 70.183,6.522 0,0 65.216,12.994 69.659-15.653-34.831,7.487-60.653,4.025-61.832-27.395 .303-26.944 40.786-42.104 75.259-21.916 3.565-7.305 7.011-14.611 10.577-21.916-12.61,1.56-23.995,3.698-37.045.648 26.531-25.173 51.491-49.9526 74.094-77.8745z" fill="#f00" fill-rule="evenodd" stroke="#000" stroke-linejoin="round" stroke-width="1.7229"/>
 <path d="m665.85 193.42c0.353 11.174-33.181 14.059-35.286 1.588-1.071-6.349 16.762-17.466 35.286-1.588z" fill="#fff" fill-rule="evenodd" stroke="#000" stroke-width="1.7229"/>
 <path d="m715.96 116.25s-2.136 25.915-5.268 31.184" fill="none" stroke="#000" stroke-linecap="round" stroke-width="1.7229"/>
 <path d="m703.85 117.68c0 0.142-10.822 29.191-10.822 29.191" fill="none" stroke="#000" stroke-linecap="round" stroke-width="1.725"/>
 <path d="m682.47 168.84c2.167 1.686 10.539 6.154 16.069 16.496" fill="none" stroke="#000" stroke-width="1.7229"/>
 <path d="m666.02 193.47s10.208 19.323 2.947 24.732" fill="none" stroke="#000" stroke-width="1.7229"/>
 <path d="m552.06 243.41c15.38-1.851 37.449 32.323 48.698 39.016" fill="none" stroke="#000" stroke-width="1.7229"/>
 <path d="m666.12 430.37s-6.408 4.698-2.99 10.822" fill="none" stroke="#000" stroke-width="1.7229"/>
 <path d="m558.47 436.07s7.688 2.136 6.835 8.544" fill="none" stroke="#000" stroke-width="1.7229"/>
 <path d="m542.95 413.71s5.553 5.839 1.851 10.679" fill="none" stroke="#000" stroke-width="1.7229"/>
 <path d="m551.78 391.21s7.404 3.559-1.424 9.683" fill="none" stroke="#000" stroke-width="1.7229"/>
 <path d="m458.79 430.09s-6.408 5.411-1.708 11.535" fill="none" stroke="#000" stroke-width="1.7229"/>
 <path d="m349.58 431.65s11.677 0.569 7.547 9.397" fill="none" stroke="#000" stroke-width="1.7229"/>
 <path d="m340.89 412s3.901 7.23-3.646 9.223" fill="none" stroke="#000" stroke-width="1.7229"/>
 <path d="m355.56 387.94s3.846 7.689-3.56 8.686" fill="none" stroke="#000" stroke-width="1.7229"/>
 <path d="m347.16 429.94s11.249-9.683 16.518-4.557 27.624-4.413 27.624-4.413" fill="none" stroke="#000" stroke-width="1.7229"/>
 <path d="m398.99 406.59-18.511 9.682" fill="none" stroke="#000" stroke-width="1.7229"/>
 <path d="m425.05 401.32s13.669 14.667 23.637-3.134" fill="none" stroke="#000" stroke-width="1.7229"/>
 <path d="m438.29 392.07c9.255 7.404 5.463 11.841 34.513-7.666" fill="none" stroke="#000" stroke-width="1.7229"/>
 <path d="m447.12 379.68s24.776 2.564 25.915 4.415c2.849-2.991 24.972-20.911-2.225-23.473-4.555 18.654-23.263 19.343-23.69 19.058z" fill="none" stroke="#000" stroke-width="1.7229"/>
 <path d="m152.43 435.12s9.123 1.336 3.782 8.678" fill="none" stroke="#000" stroke-width="1.7229"/>
 <path d="m148.42 417.76s6.675 4.229-0.89 9.791" fill="none" stroke="#000" stroke-width="1.7229"/>
 <path d="m158.88 399.29s3.115 8.01-7.344 6.898" fill="none" stroke="#000" stroke-width="1.7229"/>
 <path d="m152.2 429.11s12.685-10.459 19.36-4.005c6.454 2.226 10.013 1.78 10.013 1.78" fill="none" stroke="#000" stroke-width="1.7229"/>
 <path d="m266.36 428.44c-0.223 0-3.783 7.565-0.667 11.347" fill="none" stroke="#000" stroke-width="1.7229"/>
 <path d="m153.318,411.974c8.01-.445 9.735,3.172 17.023,3.172 8.396.256 16.577-3.172 27.259-6.065" fill="none" stroke="#000" stroke-width="1.7229"/>
 <path d="m99.022 171.2s5.1179 2.448 10.014-5.117" fill="none" stroke="#000" stroke-width="1.7229"/>
 <path d="m95.907 267.33s8.2332 2.448 6.8982 8.679" fill="none" stroke="#000" stroke-width="1.7229"/>
 <path d="m127.73 157.41s0 4.895 10.236-2.67" fill="none" stroke="#000" stroke-width="1.7229"/>
 <path d="m138.85 180.55s-7.789 20.917 1.557 25.811" fill="none" stroke="#000" stroke-width="1.7229"/>
 <path d="m148.2 174.77s4.005 8.679 9.569 3.783" fill="none" stroke="#000" stroke-width="1.7229"/>
 <path d="m139.74 119.8-6.454-10.458 5.786-2.003" fill="none" stroke="#000" stroke-width="1.7229"/>
 <path d="m204.05 66.62s6.23 7.7881 6.452 12.238-4.672 7.7885-4.672 7.7885" fill="none" stroke="#000" stroke-width="1.7229"/>
 <path d="m199.6 76.189s-1.334 4.6728-1.779 7.7883c0 2.2252-7.122 5.1181-7.122 5.1181" fill="none" stroke="#000" stroke-width="1.7229"/>
 <path d="m284.828,53.0466c.222.2225-.891,6.2305-4.229,9.791" fill="none" stroke="#000" stroke-width="1.7229"/>
 <path d="m223.86 69.736s12.906-3.3378 15.576-0.445c6.453 0.4449 18.47 3.3378 18.47 3.3378s11.57-1.5576 15.354-4.2279" fill="none" stroke="#000" stroke-width="1.7229"/>
 <path d="m230.76 68.623c-1.557 5.1179 10.679 20.249 21.807 2.0026" fill="none" stroke="#000" stroke-width="1.7229"/>
 <path d="m234.76 68.178 12.016 2.2253s-8.456 11.349-12.016-2.2253z" fill-rule="evenodd" stroke="#000" stroke-linejoin="round" stroke-width="1.7229"/>
 <path d="m251 101.78 15.8 30.263 7.565-11.349 4.006 7.788 6.453-11.348 11.126 7.12-4.228-13.796 9.345-0.667s-2.448-6.676-10.904-8.011c2.226-1.7803 10.014-6.8983 10.014-6.8983s-4.449-5.118-11.348-5.3406c2.225-2.4476 5.34-8.4558 5.118-8.4558s-6.899-1.5576-6.899-1.5576 15.8 5.1179 28.038-2.0027" fill="none" stroke="#000" stroke-linecap="round" stroke-linejoin="round" stroke-width="1.7229"/>
 <path d="m199.36,122.834 24.274-.361c7.723-.115 20.442-10.819 34.684-7.481" fill="none" stroke="#000" stroke-width="1.7229"/>
 <path d="m202.94,122.251c0-.223 1.78-4.673 1.78-4.673l1.78,4.228 2.226.222 4.449-3.783 1.781,4.006h2.002l2.67-5.341 2.448,5.341 4.896-8.233 4.896,6.008 1.779-7.344 4.674,4.673 2.224-6.23 4.674,4.005 2.225-5.34 2.448,4.895" fill="none" stroke="#000" stroke-linejoin="round" stroke-width="1.7229"/>
 <path d="m304.19 73.741s-12.463-0.4451-11.573-5.3405c0.892-5.563 13.13-9.5684 13.13-9.5684s16.243-10.458 18.691-14.019" fill="none" stroke="#000" stroke-width="1.7229"/>
 <path d="m307.08 52.602s4.006-4.0053 10.682-2.0026" fill="none" stroke="#000" stroke-width="1.7229"/>
 <path d="m207.61 278.68s-1.557 7.788 9.346 23.365c-3.115 17.356 13.195 30.996 19.649 33.221" fill="none" stroke="#000" stroke-width="1.7229"/>
 <path d="m151.92 247.55c-12.238 6.899 6.964 50.494 65.041 54.722" fill="none" stroke="#000" stroke-width="1.7229"/>
 <path d="m198.44 280.79s4.052 12.803 0.714 18.812" fill="none" stroke="#000" stroke-width="1.7229"/>
 <path d="m181.73 276.2s-4.829 9.382-5.942 13.832" fill="none" stroke="#000" stroke-width="1.7229"/>
 <path d="m164.28 264.53s-3.615 7.703-8.066 9.929" fill="none" stroke="#000" stroke-width="1.7229"/>
 <path d="m370.28 206.36s15.576-0.222 31.153-42.501c15.354-57.855 137.07-122.39 139.52-134.4" fill="none" stroke="#000" stroke-width="1.7229"/>
 <path d="m414.62 138.14c22.867-12.693 93.476-38.575 140.57-57.561" fill="none" stroke="#000" stroke-linecap="round" stroke-width="1.7229"/>
 <path d="m651.73 42.86s-216.19 101.02-219.34 106.37c36.505-11.016 191.33-36.82 195.11-34.617-9.126 2.203-197 45.315-205.81 55.701 46.889-1.574 145.08 15.105 160.49 31.154-33.358-7.552-133.12-22.343-163.64-15.735 22.344 5.351 107.94 60.737 107.94 69.548-12.902-12.272-115.81-54.757-119.9-50.665 23.6 14.161 56.96 66.714 56.958 79.617-6.923-11.014-66.4-74.898-69.861-70.807 6.294 8.813 18.766 84.222 12.39 87.717 0-9.126-23.09-75.129-24.978-77.017-4.721 1.258-34.152 80.528-28.321 87.899-3.776-26.433 0.628-81.604 7.866-79.402-12.901 1.888-54.078 56.18-49.673 64.677 1.259-13.532 3.1-22.507 26.386-67.509-25.805 1.572-79.302 35.246-88.43 47.204 7.239-21.398 52.555-57.59 72.381-60.107" fill="none" stroke="#000" stroke-linejoin="round" stroke-width="1.7229"/>
 <path d="m249.28,123.212 12.975.161" fill="none" stroke="#000" stroke-width="1.7229"/>
 <path d="m198.02 99.519s8.722 3.3378 26.812-10.984" fill="none" stroke="#000" stroke-width="1.7229"/>
 <path d="m256.28 264.06c-5.168-6.676 3.876-109.19 23.044-135.89-6.676 48.241 15.506 97.558 21.105 97.343" fill="none" stroke="#000" stroke-width="1.7229"/>
 <path d="m253.26 133.12s9.046 9.907 19.384 8.184" fill="none" stroke="#000" stroke-width="1.7229"/>
 <path d="m243.14 155.73s4.522 7.753 21.751 9.045" fill="none" stroke="#000" stroke-width="1.7229"/>
 <path d="m233.19 176.12s11.679 14.283 27.4 12.13" fill="none" stroke="#000" stroke-width="1.7229"/>
 <path d="m222.68 200.52s3.229 10.553 34.243 11.199" fill="none" stroke="#000" stroke-width="1.7229"/>
 <path d="m213.64 230.24s14.43 12.92 41.566 8.829" fill="none" stroke="#000" stroke-width="1.7229"/>
 <path d="m215.15 267.5s18.52 10.337 41.349-3.661" fill="none" stroke="#000" stroke-width="1.7229"/>
 <path d="m528.5 227.01s-12.922 10.984-0.862 28.643c-40.058-0.645-61.592 17.875-63.315 30.365-51.041-3.66-41.78 11.416-58.364 16.368-22.182-18.521-54.702-8.183-52.548 10.337-14.861-20.89-37.688-10.767-40.487-5.599s-1.723-25.628-1.723-25.628-14.86 6.677-25.199 18.952c0.217-8.183 0-21.536 0-25.843-12.418 2.512-24.407 2.654-37.257 2.369" fill="none" stroke="#000" stroke-width="1.7229"/>
 <path d="m259.99 277.09c-0.216 0-21.372 33.268 11.794 42.098" fill="none" stroke="#000" stroke-width="1.7229"/>
 <path d="m310.77 296.79s-5.385 2.584-7.323 2.153c-6.461 1.508-5.17 16.584 3.014 15.722 2.799-3.23 5.815-7.753 5.815-7.753" fill="none" stroke="#000" stroke-width="1.7229"/>
 <path d="m299.14 305.84s-2.368 3.232-6.03-0.215c-1.939-3.445-8.829 15.507 3.231 16.152 2.153-5.6 8.83-7.107 8.83-7.107" fill="none" stroke="#000" stroke-width="1.7229"/>
 <path d="m289.23 312.94c-9.476-0.646-14.644 20.245 3.662 7.11" fill="none" stroke="#000" stroke-width="1.7229"/>
 <path d="m282.55 315.96s-10.553-8.184-10.121 3.23c-0.217 7.106 3.229 8.829 3.229 8.829 0.43 5.169 4.954 12.49 8.614 5.815 1.508-6.461-1.076-9.261-1.076-9.261" fill="none" stroke="#000" stroke-width="1.7229"/>
 <path d="m227.21 388.32c-0.215 0 1.723 14.215 11.63 3.446 6.891-14.428 28.643-55.132 33.597-69.131" fill="none" stroke="#000" stroke-width="1.7229"/>
 <path d="m257.36 311.44s-15.291 4.307-9.476 22.397c8.829 7.108 17.444 6.03 17.444 6.03" fill="none" stroke="#000" stroke-width="1.7229"/>
 <path d="m246.16 348.05s10.337 4.522 13.783 2.799" fill="none" stroke="#000" stroke-width="1.7229"/>
 <path d="m238.3 365.78s4.624 8.114 11.086 5.313" fill="none" stroke="#000" stroke-width="1.7229"/>
 <path d="m320.46 301.96s1.291 21.751-5.169 29.504 1.513 23.856 1.513 23.856" fill="none" stroke="#000" stroke-width="1.7229"/>
 <path d="m336.826,300.882c.215.43 4.091,34.673-4.524,44.364" fill="none" stroke="#000" stroke-width="1.7229"/>
 <path d="m369.78 293.99s12.636 24.449-0.071 36.509" fill="none" stroke="#000" stroke-width="1.7229"/>
 <path d="m405.96 301.53s-7.323 21.753-17.66 29.074" fill="none" stroke="#000" stroke-width="1.7229"/>
 <path d="m441.92 302.39s-34.028 58.148 28.858 58.148" fill="none" stroke="#000" stroke-width="1.7229"/>
 <path d="m395.619,323.063c0-.215 34.845.097 37.213,6.557" fill="none" stroke="#000" stroke-width="1.7229"/>
 <path d="m407.03 359.25c0.431-0.432 24.982-2.801 29.505-11.631" fill="none" stroke="#000" stroke-width="1.7229"/>
 <path d="m436.56 372.46c0.216 0 15.05-8.905 12.036-15.152" fill="none" stroke="#000" stroke-width="1.7229"/>
 <path d="m435.25 285.81c1.722 22.613-26.059 35.535-37.043 33.382" fill="none" stroke="#000" stroke-width="1.7229"/>
 <path d="m433.09 299.37s19.383 9.476 35.964-5.815" fill="none" stroke="#000" stroke-width="1.7229"/>
 <path d="m464.54 286.24s7.323 13.136 16.152 12.275c11.629-3.446 15.936 3.661 15.936 3.661" fill="none" stroke="#000" stroke-width="1.7229"/>
 <path d="m513.42 256.09s-0.862 32.735 45.225 39.41c51.472 14.215 75.807 6.677 78.823 64.394-1.938 21.967-4.668 46.778-20.604 37.301" fill="none" stroke="#000" stroke-width="1.7229"/>
 <path d="m622.61 380.56s7.607 6.391 12.776-2.007" fill="none" stroke="#000" stroke-width="1.7229"/>
 <path d="m623.62 363.63s9.399 1.697 13.706-7.347" fill="none" stroke="#000" stroke-width="1.7229"/>
 <path d="m620.98 341.69s10.167 2.534 13.397-4.143" fill="none" stroke="#000" stroke-width="1.7229"/>
 <path d="m621.32 314.88s-7.727 15.126-10.526 16.634" fill="none" stroke="#000" stroke-width="1.7229"/>
 <path d="m601.29 305.19s0.432 16.151-6.46 22.612" fill="none" stroke="#000" stroke-width="1.7229"/>
 <path d="m579.54 301.31s-0.215 13.353-11.199 22.613" fill="none" stroke="#000" stroke-width="1.7229"/>
 <path d="m539.05,319.834c.215-.216 17.659-19.383 13.137-25.198" fill="none" stroke="#000" stroke-width="1.7229"/>
 <path d="m533.24 286.88s-2.299 18.453-20.82 21.252" fill="none" stroke="#000" stroke-width="1.7229"/>
 <path d="m254.87 250.98s35.657-21.381 37.595-37.102" fill="none" stroke="#000" stroke-width="1.7229"/>
 <path d="m256.06 232.4c0-0.215 22.33-5.693 31.591-30.244" fill="none" stroke="#000" stroke-width="1.7229"/>
 <path d="m256.71,218.829c1.94.861 26.367-16.732 27.014-29.653" fill="none" stroke="#000" stroke-width="1.7229"/>
 <path d="m258.22 203.11c7.107-1.938 20.183-17.753 22.767-26.152" fill="none" stroke="#000" stroke-width="1.7229"/>
 <path d="m261.45 186.09s10.122-7.107 17.875-17.875" fill="none" stroke="#000" stroke-width="1.7229"/>
 <path d="m265.37 165.91c0.215 5.815 9.437-2.048 13.098-7.002" fill="none" stroke="#000" stroke-width="1.7229"/>
 <path d="m285.35 227.66 4.308 5.383" fill="none" stroke="#000" stroke-width="1.7229"/>
 <path d="m276.25 236.05 2.862 4.534" fill="none" stroke="#000" stroke-width="1.7229"/>
 <path d="m266.4 244.24c0 0.215 3.445 4.954 3.445 4.954" fill="none" stroke="#000" stroke-width="1.7229"/>
 <path d="m260.37 247.69s0.215 6.891 3.661 7.321" fill="none" stroke="#000" stroke-width="1.7229"/>
 <path d="m261.88 230.24s3.877 13.137 7.323 10.982" fill="none" stroke="#000" stroke-width="1.7229"/>
 <path d="m271.79 224c0.215 0.432 4.307 12.277 4.307 12.277" fill="none" stroke="#000" stroke-width="1.7229"/>
 <path d="m280.4 216.03 5.168 10.338" fill="none" stroke="#000" stroke-width="1.7229"/>
 <path d="m274.58,206.118c.216.215 5.606,7.974 7.112,6.897" fill="none" stroke="#000" stroke-width="1.7229"/>
 <path d="m266.83 213.23s3.015 11.845 5.383 10.767" fill="none" stroke="#000" stroke-width="1.7229"/>
 <path d="m256.54 222.12 5.556 8.339" fill="none" stroke="#000" stroke-width="1.7229"/>
 <path d="m264.68 199.23s1.938 12.491 3.66 12.061" fill="none" stroke="#000" stroke-width="1.7229"/>
 <path d="m271.88 192.11c0 0.215 5.501 10.565 5.932 10.565" fill="none" stroke="#000" stroke-width="1.7229"/>
 <path d="m260.8 190.62c0.215 0 6.031 6.677 6.031 6.677" fill="none" stroke="#000" stroke-width="1.7229"/>
 <path d="m269.417,180.279c.215.216 4.954,8.184 4.954,8.184" fill="none" stroke="#000" stroke-width="1.7229"/>
 <path d="m271.79 165.85s0 9.259 1.938 9.476" fill="none" stroke="#000" stroke-width="1.7229"/>
 <path d="m267.26 158.74 4.737 6.891" fill="none" stroke="#000" stroke-width="1.7229"/>
</svg>
